Coordinates
version=1
nRows=17
nColumns=38
inDegrees=no

Units are S.I. units (second, meters, Newtons, ...)
If the header above contains a line with 'inDegrees', this indicates whether rotational values are in degrees (yes) or radians (no).

endheader
time	pelvis_tilt	pelvis_list	pelvis_rotation	pelvis_tx	pelvis_ty	pelvis_tz	hip_flexion_r	hip_adduction_r	hip_rotation_r	knee_angle_r	ankle_angle_r	subtalar_angle_r	mtp_angle_r	hip_flexion_l	hip_adduction_l	hip_rotation_l	knee_angle_l	ankle_angle_l	subtalar_angle_l	mtp_angle_l	lumbar_extension	lumbar_bending	lumbar_rotation	arm_flex_r	arm_add_r	arm_rot_r	elbow_flex_r	pro_sup_r	wrist_flex_r	wrist_dev_r	arm_flex_l	arm_add_l	arm_rot_l	elbow_flex_l	pro_sup_l	wrist_flex_l	wrist_dev_l
1.58	-2.53983	1.51067	-2.16068	0.709544	1.47816	0.93852	-0.287869	-0.0292641	-0.216542	0.221855	0.303446	0	0	0.355769	0.109151	-0.217135	0	0.140687	0	0	-0.152189	-0.0330934	-0.045549	-0.0691552	-0.0782663	-0.240464	0.316604	1.44363	0	0	-0.214852	-0.420331	0.680094	0.709334	0.684608	0	0
1.59	-2.53425	1.51013	-2.17441	0.709712	1.49144	0.936815	-0.289494	-0.0364102	-0.219014	0.248577	0.311465	0	0	0.357351	0.109484	-0.208828	0	0.14684	0	0	-0.15182	-0.037028	-0.0393588	-0.0682692	-0.0756108	-0.240306	0.314215	1.43989	0	0	-0.218026	-0.420222	0.675517	0.708106	0.680245	0	0
1.6	-2.72656	1.50426	-1.98762	0.709282	1.50553	0.937197	-0.301558	-0.0466455	-0.243719	0.285253	0.323286	0	0	0.347124	0.0982805	-0.209068	0.0110433	0.153514	0	0	-0.16279	-0.0307717	-0.0348517	-0.0664593	-0.0754166	-0.240475	0.311938	1.43676	0	0	-0.218889	-0.415955	0.671038	0.701582	0.676126	0	0
1.61	-2.54307	1.50758	-2.18249	0.71018	1.51904	0.934122	-0.297435	-0.06025	-0.231573	0.302058	0.327175	0	0	0.377908	0.0990575	-0.220492	0.0668626	0.161811	0	0	-0.150542	-0.0460122	-0.0263882	-0.0684429	-0.0707351	-0.24043	0.310776	1.4348	0	0	-0.227864	-0.421462	0.665398	0.706956	0.672827	0	0
1.62	-2.71029	1.50109	-2.02009	0.709977	1.5336	0.934284	-0.307689	-0.0642213	-0.239993	0.340481	0.327298	0	0	0.386525	0.0861928	-0.228056	0.133917	0.17655	0	0	-0.159754	-0.0419967	-0.0224065	-0.0685874	-0.0707437	-0.24042	0.30875	1.43303	0	0	-0.232536	-0.419658	0.661208	0.705162	0.668127	0	0
1.63	-2.71327	1.50141	-2.0278	0.710468	1.5483	0.932733	-0.302956	-0.0725985	-0.23033	0.37724	0.323411	0	0	0.407629	0.0763192	-0.237885	0.206192	0.194448	0	0	-0.154387	-0.0461964	-0.0137978	-0.071264	-0.0697001	-0.240485	0.306613	1.43176	0	0	-0.243086	-0.420611	0.652663	0.708963	0.662695	0	0
1.64	-2.71969	1.5031	-2.03361	0.710991	1.5636	0.931079	-0.295018	-0.0808769	-0.217156	0.41767	0.315742	0	0	0.42521	0.065996	-0.245319	0.272602	0.214709	0	0	-0.145546	-0.0495167	-0.00442755	-0.0748126	-0.0696882	-0.240424	0.302908	1.43132	0	0	-0.257142	-0.420941	0.642028	0.713993	0.656274	0	0
1.65	-2.7754	1.50659	-1.99236	0.711859	1.57906	0.929562	-0.282652	-0.0968595	-0.244007	0.467517	0.307001	0	0	0.437486	0.0524178	-0.251905	0.326312	0.226833	0	0	-0.135364	-0.0492746	0.00619951	-0.0779967	-0.0707252	-0.239629	0.298379	1.43308	0	0	-0.272861	-0.420359	0.629959	0.717937	0.649736	0	0
1.66	-2.68174	1.50832	-2.096	0.711412	1.59507	0.927708	-0.266457	-0.102886	-0.189092	0.515756	0.287478	0	0	0.445153	0.0548019	-0.255321	0.358884	0.212624	0	0	-0.120437	-0.057665	0.00973908	-0.0826324	-0.0724334	-0.237706	0.294383	1.43863	0	0	-0.293069	-0.419449	0.614225	0.724357	0.639836	0	0
1.67	-2.58889	1.50952	-2.19685	0.710897	1.61033	0.926434	-0.241113	-0.119105	-0.175096	0.578226	0.260293	0	0	0.449404	0.057934	-0.256663	0.378643	0.176194	0	0	-0.107738	-0.0661397	0.0106476	-0.085228	-0.0736807	-0.235121	0.29223	1.44586	0	0	-0.310025	-0.418676	0.60235	0.728331	0.629781	0	0
1.68	-2.43163	1.50847	-2.35652	0.709863	1.62477	0.925727	-0.207395	-0.138409	-0.161886	0.648899	0.221338	0	0	0.456357	0.065913	-0.256304	0.400136	0.144024	0	0	-0.0963195	-0.0788666	0.00607597	-0.0865106	-0.0737772	-0.231694	0.292669	1.45431	0	0	-0.322738	-0.419346	0.596167	0.730432	0.617377	0	0
1.69	-2.28229	1.50393	-2.50251	0.708559	1.63868	0.925789	-0.172978	-0.156832	-0.148546	0.720324	0.171909	0	0	0.464133	0.0764389	-0.252938	0.429181	0.132051	0	0	-0.0887176	-0.0932951	-0.00290665	-0.0872687	-0.0727657	-0.228364	0.295019	1.46654	0	0	-0.330327	-0.423708	0.600335	0.733011	0.594276	0	0
1.7	-2.19863	1.49743	-2.57999	0.707291	1.65236	0.926443	-0.140007	-0.170895	-0.131895	0.791116	0.113656	0	0	0.468771	0.0860892	-0.248167	0.461885	0.13141	0	0	-0.08625	-0.105989	-0.0131054	-0.0874304	-0.0717844	-0.226346	0.297025	1.47837	0	0	-0.333977	-0.430703	0.611119	0.736426	0.574536	0	0
1.71	-2.17603	1.49138	-2.59571	0.706177	1.66602	0.927394	-0.108849	-0.179454	-0.1132	0.859148	0.0490238	0	0	0.468297	0.0925758	-0.244461	0.49244	0.130517	0	0	-0.0873883	-0.114977	-0.0219742	-0.0872851	-0.0717659	-0.224075	0.296387	1.48805	0	0	-0.335001	-0.439324	0.625674	0.741461	0.558536	0	0
1.72	-2.18086	1.48638	-2.58391	0.705115	1.6796	0.928432	-0.0785659	-0.183991	-0.0947104	0.923288	-0.0178927	0	0	0.462602	0.0968352	-0.243171	0.516244	0.126696	0	0	-0.0899425	-0.121073	-0.0292016	-0.0868469	-0.0726573	-0.222088	0.29268	1.49388	0	0	-0.33457	-0.448037	0.639686	0.747958	0.546163	0	0
1.73	-2.18738	1.48191	-2.5699	0.703935	1.69298	0.929482	-0.0494211	-0.187821	-0.0794519	0.982899	-0.0823594	0	0	0.452242	0.100969	-0.244722	0.531405	0.123382	0	0	-0.0924954	-0.126037	-0.0356201	-0.0868334	-0.0742338	-0.220501	0.288208	1.49603	0	0	-0.332791	-0.456568	0.653815	0.754367	0.540453	0	0
1.74	-2.16339	1.47694	-2.58506	0.702802	1.70624	0.930183	-0.0301658	-0.190958	-0.0674612	1.02131	-0.139318	0	0	0.440071	0.10743	-0.249221	0.539382	0.123621	0	0	-0.0925964	-0.133533	-0.0428286	-0.0891251	-0.0751922	-0.220006	0.287329	1.49806	0	0	-0.332781	-0.465711	0.661114	0.762362	0.540552	0	0
